<svg width="40" height="36" viewBox="0 0 40 36" fill="none" xmlns="http://www.w3.org/2000/svg">
<path fill-rule="evenodd" clip-rule="evenodd" d="M4 0C2.93913 0 1.92172 0.421427 1.17157 1.17157C0.421427 1.92172 0 2.93913 0 4V32C0 33.0609 0.421427 34.0783 1.17157 34.8284C1.92172 35.5786 2.93913 36 4 36H36C37.0609 36 38.0783 35.5786 38.8284 34.8284C39.5786 34.0783 40 33.0609 40 32V4C40 2.93913 39.5786 1.92172 38.8284 1.17157C38.0783 0.421427 37.0609 0 36 0H4ZM13.25 11.26C13.2944 10.8776 13.4275 10.5109 13.6388 10.1892C13.85 9.86738 14.1336 9.59944 14.4668 9.4067C14.8 9.21397 15.1736 9.10178 15.5579 9.07908C15.9422 9.05639 16.3264 9.12382 16.68 9.276C17.688 9.708 19.816 10.68 22.512 12.236C24.4059 13.3201 26.2356 14.5128 27.992 15.808C28.3007 16.0377 28.5513 16.3363 28.724 16.6801C28.8968 17.0239 28.9867 17.4033 28.9867 17.788C28.9867 18.1727 28.8968 18.5521 28.724 18.8959C28.5513 19.2397 28.3007 19.5383 27.992 19.768C26.2356 21.0619 24.4059 22.2533 22.512 23.336C20.6267 24.4355 18.6795 25.4252 16.68 26.3C16.3265 26.4526 15.9421 26.5204 15.5577 26.4979C15.1733 26.4754 14.7995 26.3633 14.4661 26.1705C14.1328 25.9777 13.8492 25.7095 13.638 25.3875C13.4269 25.0655 13.294 24.6986 13.25 24.316C13.0082 22.1485 12.8906 19.9689 12.898 17.788C12.898 14.686 13.122 12.35 13.25 11.26Z" fill="#CED4DA"/>
</svg>
