<svg width="24" height="24" viewBox="0 0 24 24" fill="none" xmlns="http://www.w3.org/2000/svg">
<path d="M21.0999 8.87506L12.6999 17.3001C12.5999 17.4001 12.4916 17.4711 12.3749 17.5131C12.2582 17.5551 12.1332 17.5757 11.9999 17.5751C11.8666 17.5751 11.7416 17.5544 11.6249 17.5131C11.5082 17.4717 11.3999 17.4007 11.2999 17.3001L2.8749 8.87506C2.64157 8.64172 2.5249 8.35006 2.5249 8.00006C2.5249 7.65006 2.6499 7.35006 2.8999 7.10006C3.1499 6.85006 3.44157 6.72506 3.7749 6.72506C4.10824 6.72506 4.3999 6.85006 4.6499 7.10006L11.9999 14.4501L19.3499 7.10006C19.5832 6.86672 19.8709 6.75006 20.2129 6.75006C20.5549 6.75006 20.8506 6.87506 21.0999 7.12506C21.3499 7.37506 21.4749 7.66673 21.4749 8.00006C21.4749 8.33339 21.3499 8.62506 21.0999 8.87506Z" fill="#CED4DA"/>
</svg>
