<svg width="24" height="24" viewBox="0 0 24 24" fill="none" xmlns="http://www.w3.org/2000/svg">
<path d="M8.87506 2.9001L17.3001 11.3001C17.4001 11.4001 17.4711 11.5084 17.5131 11.6251C17.5551 11.7418 17.5757 11.8668 17.5751 12.0001C17.5751 12.1334 17.5544 12.2584 17.5131 12.3751C17.4717 12.4918 17.4007 12.6001 17.3001 12.7001L8.87506 21.1251C8.64172 21.3584 8.35006 21.4751 8.00006 21.4751C7.65006 21.4751 7.35006 21.3501 7.10006 21.1001C6.85006 20.8501 6.72506 20.5584 6.72506 20.2251C6.72506 19.8918 6.85006 19.6001 7.10006 19.3501L14.4501 12.0001L7.10006 4.6501C6.86672 4.41676 6.75006 4.1291 6.75006 3.7871C6.75006 3.4451 6.87506 3.14943 7.12506 2.9001C7.37506 2.6501 7.66673 2.5251 8.00006 2.5251C8.33339 2.5251 8.62506 2.6501 8.87506 2.9001Z" fill="#CED4DA" fill-opacity="0.2"/>
</svg>
