<svg width="24" height="24" viewBox="0 0 24 24" fill="none" xmlns="http://www.w3.org/2000/svg">
<g clip-path="url(#clip0_0_2056)">
<path d="M22.1066 12.7534L13.0532 3.70002C12.9327 3.58167 12.79 3.48833 12.6332 3.4254C12.4765 3.36247 12.3088 3.33119 12.1399 3.33336H10.7466L21.1666 13.6334L14.1466 20.7134C14.2661 20.8329 14.4079 20.9277 14.5641 20.9924C14.7202 21.0571 14.8876 21.0904 15.0566 21.0904C15.2256 21.0904 15.393 21.0571 15.5491 20.9924C15.7052 20.9277 15.8471 20.8329 15.9666 20.7134L22.1066 14.5734C22.2261 14.4539 22.3209 14.312 22.3856 14.1559C22.4503 13.9997 22.4836 13.8324 22.4836 13.6634C22.4836 13.4943 22.4503 13.327 22.3856 13.1708C22.3209 13.0147 22.2261 12.8728 22.1066 12.7534Z" fill="#CED4DA"/>
<path d="M18.5201 12.78L9.46678 3.72004C9.34792 3.59807 9.20592 3.50105 9.04909 3.43465C8.89226 3.36825 8.72376 3.33382 8.55345 3.33337H2.40678C2.06554 3.33337 1.73827 3.46893 1.49697 3.71023C1.25568 3.95153 1.12012 4.2788 1.12012 4.62004V10.7667C1.12058 10.9354 1.15439 11.1024 1.2196 11.258C1.28482 11.4136 1.38015 11.5547 1.50012 11.6734L10.5601 20.7334C10.6796 20.8529 10.8215 20.9477 10.9776 21.0124C11.1337 21.0771 11.3011 21.1104 11.4701 21.1104C11.6391 21.1104 11.8065 21.0771 11.9626 21.0124C12.1188 20.9477 12.2606 20.8529 12.3801 20.7334L18.5201 14.5934C18.7595 14.3523 18.8938 14.0264 18.8938 13.6867C18.8938 13.347 18.7595 13.0211 18.5201 12.78ZM4.44678 7.81337C4.21839 7.81337 3.99515 7.74556 3.80534 7.61853C3.61553 7.4915 3.46771 7.31098 3.38062 7.09985C3.29353 6.88872 3.27108 6.65648 3.31612 6.43257C3.36117 6.20867 3.47168 6.00318 3.63364 5.84215C3.7956 5.68112 4.00173 5.57181 4.22589 5.52806C4.45006 5.48432 4.68216 5.50811 4.89278 5.59642C5.10341 5.68474 5.28307 5.8336 5.40899 6.02414C5.53492 6.21468 5.60144 6.43832 5.60012 6.66671C5.59836 6.97143 5.47607 7.26308 5.25997 7.47793C5.04386 7.69278 4.75152 7.81338 4.44678 7.81337Z" fill="#CED4DA"/>
</g>
<defs>
<clipPath id="clip0_0_2056">
<rect width="24" height="24" fill="white"/>
</clipPath>
</defs>
</svg>
