<svg width="30" height="32" viewBox="0 0 30 32" fill="none" xmlns="http://www.w3.org/2000/svg">
<path d="M17.0832 22.0667L11.4665 16.4667C11.3999 16.4 11.3525 16.3278 11.3245 16.25C11.2965 16.1722 11.2828 16.0889 11.2832 16C11.2832 15.9111 11.297 15.8278 11.3245 15.75C11.3521 15.6722 11.3994 15.6 11.4665 15.5333L17.0832 9.91668C17.2388 9.76113 17.4332 9.68335 17.6665 9.68335C17.8999 9.68335 18.0999 9.76668 18.2665 9.93335C18.4332 10.1 18.5165 10.2945 18.5165 10.5167C18.5165 10.7389 18.4332 10.9333 18.2665 11.1L13.3665 16L18.2665 20.9C18.4221 21.0556 18.4999 21.2473 18.4999 21.4753C18.4999 21.7034 18.4165 21.9005 18.2499 22.0667C18.0832 22.2334 17.8888 22.3167 17.6665 22.3167C17.4443 22.3167 17.2499 22.2334 17.0832 22.0667Z" fill="#CED4DA"/>
</svg>
