<svg width="24" height="24" viewBox="0 0 24 24" fill="none" xmlns="http://www.w3.org/2000/svg">
<g clip-path="url(#clip0_0_1951)">
<path fill-rule="evenodd" clip-rule="evenodd" d="M21 12C21 14.3869 20.0518 16.6761 18.364 18.364C16.6761 20.0518 14.3869 21 12 21C9.61305 21 7.32387 20.0518 5.63604 18.364C3.94821 16.6761 3 14.3869 3 12C3 9.61305 3.94821 7.32387 5.63604 5.63604C7.32387 3.94821 9.61305 3 12 3C14.3869 3 16.6761 3.94821 18.364 5.63604C20.0518 7.32387 21 9.61305 21 12ZM10.5 7.5C10.5 7.10218 10.658 6.72064 10.9393 6.43934C11.2206 6.15804 11.6022 6 12 6C12.3978 6 12.7794 6.15804 13.0607 6.43934C13.342 6.72064 13.5 7.10218 13.5 7.5V12C13.5 12.3978 13.342 12.7794 13.0607 13.0607C12.7794 13.342 12.3978 13.5 12 13.5C11.6022 13.5 11.2206 13.342 10.9393 13.0607C10.658 12.7794 10.5 12.3978 10.5 12V7.5ZM12 15C11.6022 15 11.2206 15.158 10.9393 15.4393C10.658 15.7206 10.5 16.1022 10.5 16.5C10.5 16.8978 10.658 17.2794 10.9393 17.5607C11.2206 17.842 11.6022 18 12 18C12.3978 18 12.7794 17.842 13.0607 17.5607C13.342 17.2794 13.5 16.8978 13.5 16.5C13.5 16.1022 13.342 15.7206 13.0607 15.4393C12.7794 15.158 12.3978 15 12 15Z" fill="#CED4DA"/>
</g>
<defs>
<clipPath id="clip0_0_1951">
<rect width="18" height="18" fill="white" transform="translate(3 3)"/>
</clipPath>
</defs>
</svg>
