<svg width="23" height="24" viewBox="0 0 23 24" fill="none" xmlns="http://www.w3.org/2000/svg">
<path d="M20.4838 14.3591L22.8397 18.4404C22.9366 18.6085 22.9913 18.7975 22.9992 18.9914C23.007 19.1852 22.9677 19.3781 22.8846 19.5534C22.8016 19.7287 22.6772 19.8813 22.5223 19.998C22.3673 20.1147 22.1863 20.1921 21.9949 20.2235L21.8595 20.2367L21.7253 20.2355L18.2107 20.0078L16.6493 23.1665C16.5645 23.3375 16.4402 23.4859 16.2866 23.5992C16.1329 23.7125 15.9545 23.7875 15.766 23.818C15.5776 23.8484 15.3846 23.8335 15.2031 23.7744C15.0216 23.7152 14.8568 23.6137 14.7225 23.478L14.6242 23.3654L14.5379 23.2336L12.1797 19.151C13.8398 19.0473 15.4533 18.5607 16.894 17.7293C18.3346 16.898 19.5633 15.7445 20.4838 14.3591ZM10.8184 19.151L8.46261 23.2348C8.36714 23.4002 8.23355 23.5405 8.07294 23.6439C7.91233 23.7473 7.72935 23.8108 7.53923 23.8292C7.34911 23.8476 7.15734 23.8204 6.97988 23.7497C6.80242 23.679 6.64441 23.567 6.51899 23.4229L6.42792 23.3031L6.35123 23.1665L4.78866 20.009L1.27648 20.2367C1.08301 20.2491 0.889414 20.2145 0.712263 20.1357C0.535111 20.057 0.379687 19.9365 0.2593 19.7845C0.138913 19.6326 0.0571521 19.4537 0.0210188 19.2632C-0.0151146 19.0728 -0.00454327 18.8764 0.0518275 18.6909L0.0997589 18.5627L0.159674 18.4428L2.5179 14.3579C3.4378 15.7432 4.6658 16.8969 6.10581 17.7287C7.54582 18.5604 9.15878 19.0464 10.8184 19.151ZM11.5015 0L11.7891 0.00479309C13.9626 0.07936 16.0223 0.995251 17.5336 2.55927C19.0448 4.12329 19.8895 6.21315 19.8895 8.38801L19.8859 8.61928L19.8775 8.84935L19.8559 9.14293L19.8248 9.43292L19.796 9.64621C19.7172 10.1635 19.59 10.6722 19.4162 11.1656L19.2772 11.5347L19.0938 11.9517C18.4154 13.3968 17.3388 14.6184 15.9904 15.4729C14.6419 16.3275 13.0776 16.7795 11.4812 16.776C9.88477 16.7725 8.3225 16.3135 6.97783 15.4531C5.63317 14.5926 4.56194 13.3663 3.88994 11.9182L3.73417 11.5623L3.67185 11.4029L3.57599 11.1429L3.46215 10.7906C3.42149 10.6541 3.38434 10.5167 3.35071 10.3784L3.27882 10.0536L3.2201 9.7289L3.19613 9.56233L3.1494 9.17529L3.12064 8.73791L3.11345 8.38801C3.11342 6.21315 3.95812 4.12329 5.46937 2.55927C6.98063 0.995251 9.04029 0.07936 11.2139 0.00479309L11.5015 0Z" fill="#CED4DA"/>
</svg>
