<svg width="30" height="32" viewBox="0 0 30 32" fill="none" xmlns="http://www.w3.org/2000/svg">
<path d="M12.9168 9.93332L18.5335 15.5333C18.6001 15.6 18.6475 15.6722 18.6755 15.75C18.7035 15.8278 18.7172 15.9111 18.7168 16C18.7168 16.0889 18.703 16.1722 18.6755 16.25C18.6479 16.3278 18.6006 16.4 18.5335 16.4667L12.9168 22.0833C12.7612 22.2389 12.5668 22.3167 12.3335 22.3167C12.1001 22.3167 11.9001 22.2333 11.7335 22.0667C11.5668 21.9 11.4835 21.7055 11.4835 21.4833C11.4835 21.2611 11.5668 21.0667 11.7335 20.9L16.6335 16L11.7335 11.1C11.5779 10.9444 11.5001 10.7527 11.5001 10.5247C11.5001 10.2966 11.5835 10.0995 11.7501 9.93332C11.9168 9.76665 12.1112 9.68332 12.3335 9.68332C12.5557 9.68332 12.7501 9.76665 12.9168 9.93332Z" fill="#CED4DA"/>
</svg>
