<svg width="48" height="48" viewBox="0 0 48 48" fill="none" xmlns="http://www.w3.org/2000/svg">
<path d="M18 32C14.1 32 10.7913 30.6413 8.074 27.924C5.35667 25.2067 3.99867 21.8987 4 18C4 14.1 5.35867 10.7913 8.076 8.074C10.7933 5.35667 14.1013 3.99867 18 4C21.9 4 25.2087 5.35867 27.926 8.076C30.6433 10.7933 32.0013 14.1013 32 18C32 21.9 30.6413 25.2087 27.924 27.926C25.2067 30.6433 21.8987 32.0013 18 32ZM16 40V35.9C16.3333 35.9333 16.6667 35.9587 17 35.976C17.3333 35.9933 17.6667 36.0013 18 36C23 36 27.25 34.25 30.75 30.75C34.25 27.25 36 23 36 18C36 17.6667 35.9913 17.3333 35.974 17C35.9567 16.6667 35.932 16.3333 35.9 16H40C41.1 16 42.042 16.392 42.826 17.176C43.61 17.96 44.0013 18.9013 44 20V40C44 41.1 43.608 42.042 42.824 42.826C42.04 43.61 41.0987 44.0013 40 44H20C18.9 44 17.958 43.608 17.174 42.824C16.39 42.04 15.9987 41.0987 16 40Z" fill="#CED4DA"/>
</svg>
