<svg width="416" height="165" viewBox="0 0 416 165" fill="none" xmlns="http://www.w3.org/2000/svg">
<path d="M11.0133 153.987C11.0133 153.987 58.2698 113.138 89.7741 92.7134C121.278 72.289 137.03 64.1192 168.535 51.8646C200.039 39.61 215.791 31.4402 247.295 31.4402C278.8 31.4402 294.552 31.4402 326.056 31.4402C357.56 31.4402 404.817 11.0158 404.817 11.0158" stroke="#3ACCE6" stroke-width="2" stroke-linecap="round" stroke-linejoin="round"/>
<path d="M11.0133 153.987C11.0133 153.987 58.2698 113.138 89.7741 92.7134C121.278 72.289 137.03 64.1192 168.535 51.8646C200.039 39.61 215.791 31.4402 247.295 31.4402C278.8 31.4402 294.552 31.4402 326.056 31.4402C357.56 31.4402 404.817 11.0158 404.817 11.0158" stroke="#C0C0C0" stroke-opacity="0.01" stroke-width="22" stroke-linecap="round" stroke-linejoin="round"/>
<path d="M10.6796 157.991C9.61766 157.991 8.59918 157.57 7.84817 156.819C7.09715 156.068 6.67511 155.05 6.67484 153.988C6.67457 152.926 7.09611 151.907 7.84675 151.156C8.59739 150.405 9.61566 149.982 10.6776 149.982C11.7396 149.981 12.7583 150.403 13.5097 151.153C14.2611 151.903 14.6836 152.922 14.6844 153.984C14.6852 155.046 14.2642 156.064 13.5139 156.816C12.7636 157.568 11.7456 157.99 10.6836 157.991H10.6796Z" fill="#3ACCE6"/>
<path d="M89.7741 96.7183C88.7121 96.7183 87.6936 96.2965 86.9426 95.5457C86.1916 94.7948 85.7696 93.7765 85.7693 92.7145C85.769 91.6525 86.1906 90.6339 86.9412 89.8827C87.6918 89.1315 88.7101 88.7092 89.7721 88.7087C90.834 88.7082 91.8527 89.1295 92.6041 89.8799C93.3555 90.6304 93.7781 91.6485 93.7788 92.7105C93.7796 93.7724 93.3586 94.7912 92.6084 95.5428C91.8581 96.2944 90.84 96.7172 89.7781 96.7183L89.7741 96.7183Z" fill="#3ACCE6"/>
<path d="M167.867 55.8694C166.805 55.8694 165.787 55.4477 165.036 54.6968C164.285 53.946 163.863 52.9276 163.863 51.8657C163.862 50.8037 164.284 49.7851 165.034 49.0339C165.785 48.2827 166.803 47.8604 167.865 47.8599C168.927 47.8594 169.946 48.2806 170.697 49.0311C171.449 49.7815 171.871 50.7997 171.872 51.8617C171.873 52.9236 171.452 53.9424 170.702 54.694C169.951 55.4456 168.933 55.8684 167.871 55.8694L167.867 55.8694Z" fill="#3ACCE6"/>
<path d="M246.962 35.4449C245.9 35.4449 244.881 35.0231 244.13 34.2723C243.379 33.5215 242.957 32.5031 242.957 31.4411C242.957 30.3792 243.378 29.3606 244.129 28.6094C244.88 27.8582 245.898 27.4359 246.96 27.4353C248.022 27.4348 249.04 27.8561 249.792 28.6066C250.543 29.357 250.966 30.3752 250.967 31.4371C250.967 32.4991 250.546 33.5179 249.796 34.2695C249.046 35.021 248.028 35.4438 246.966 35.4449H246.962Z" fill="#3ACCE6"/>
<path d="M326.056 35.4449C324.994 35.4449 323.976 35.0231 323.225 34.2723C322.474 33.5215 322.052 32.5031 322.051 31.4411C322.051 30.3792 322.473 29.3606 323.223 28.6094C323.974 27.8582 324.992 27.4359 326.054 27.4353C327.116 27.4348 328.135 27.8561 328.886 28.6066C329.638 29.357 330.06 30.3752 330.061 31.4371C330.062 32.4991 329.641 33.5179 328.89 34.2695C328.14 35.021 327.122 35.4438 326.06 35.4449H326.056Z" fill="#3ACCE6"/>
<path d="M404.149 15.0206C403.087 15.0206 402.069 14.5988 401.318 13.848C400.567 13.0972 400.145 12.0788 400.145 11.0168C400.144 9.95488 400.566 8.93629 401.317 8.18509C402.067 7.43389 403.085 7.01159 404.147 7.01106C405.209 7.01053 406.228 7.43181 406.979 8.18226C407.731 8.93271 408.153 9.95088 408.154 11.0128C408.155 12.0748 407.734 13.0936 406.984 13.8452C406.233 14.5967 405.215 15.0196 404.153 15.0206L404.149 15.0206Z" fill="#3ACCE6"/>
</svg>
