<svg width="113" height="48" viewBox="0 0 113 48" fill="none" xmlns="http://www.w3.org/2000/svg">
<path d="M62.5 34C61.6667 34 60.9583 33.7083 60.375 33.125C59.7917 32.5417 59.5 31.8333 59.5 31C59.5 30.8833 59.5083 30.7623 59.525 30.637C59.5417 30.5123 59.5667 30.4 59.6 30.3L52.55 26.2C52.2667 26.45 51.95 26.6457 51.6 26.787C51.25 26.929 50.8833 27 50.5 27C49.6667 27 48.9583 26.7083 48.375 26.125C47.7917 25.5417 47.5 24.8333 47.5 24C47.5 23.1667 47.7917 22.4583 48.375 21.875C48.9583 21.2917 49.6667 21 50.5 21C50.8833 21 51.25 21.0707 51.6 21.212C51.95 21.354 52.2667 21.55 52.55 21.8L59.6 17.7C59.5667 17.6 59.5417 17.4877 59.525 17.363C59.5083 17.2377 59.5 17.1167 59.5 17C59.5 16.1667 59.7917 15.4583 60.375 14.875C60.9583 14.2917 61.6667 14 62.5 14C63.3333 14 64.0417 14.2917 64.625 14.875C65.2083 15.4583 65.5 16.1667 65.5 17C65.5 17.8333 65.2083 18.5417 64.625 19.125C64.0417 19.7083 63.3333 20 62.5 20C62.1167 20 61.75 19.929 61.4 19.787C61.05 19.6457 60.7333 19.45 60.45 19.2L53.4 23.3C53.4333 23.4 53.4583 23.5123 53.475 23.637C53.4917 23.7623 53.5 23.8833 53.5 24C53.5 24.1167 53.4917 24.2373 53.475 24.362C53.4583 24.4873 53.4333 24.6 53.4 24.7L60.45 28.8C60.7333 28.55 61.05 28.354 61.4 28.212C61.75 28.0707 62.1167 28 62.5 28C63.3333 28 64.0417 28.2917 64.625 28.875C65.2083 29.4583 65.5 30.1667 65.5 31C65.5 31.8333 65.2083 32.5417 64.625 33.125C64.0417 33.7083 63.3333 34 62.5 34Z" fill="#CED4DA"/>
</svg>
