<svg width="24" height="24" viewBox="0 0 24 24" fill="none" xmlns="http://www.w3.org/2000/svg">
<path d="M6.99246 10.6174C6.70343 10.5903 6.44879 10.7927 6.41646 11.0786L6.08047 14.1266L4.32953 11.6087C4.16572 11.3719 3.83908 11.3135 3.60327 11.4783C3.36639 11.6421 3.30799 11.9677 3.47282 12.2046L6.01786 15.864C6.11804 16.0059 6.27872 16.0873 6.44673 16.0873C6.48953 16.0873 6.53228 16.0821 6.57508 16.0727C6.78585 16.0185 6.94134 15.841 6.96536 15.624L7.45371 11.1934C7.48599 10.9065 7.27835 10.6487 6.99246 10.6174Z" fill="#00B96B"/>
<path d="M22.6383 10.2261C22.2689 9.95375 21.8077 9.61356 21.7471 9.38924C21.6814 9.14297 21.9162 8.60038 22.1061 8.16525C22.4306 7.41707 22.7666 6.64385 22.3941 5.99899C22.0163 5.34575 21.1711 5.25081 20.353 5.159C19.8876 5.10681 19.3075 5.04215 19.1332 4.86787C18.9589 4.69359 18.8943 4.11446 18.8421 3.64803C18.7503 2.82996 18.6542 1.98474 18.0021 1.60699C17.3562 1.23134 16.584 1.56942 15.8369 1.89499C15.4028 2.08384 14.8612 2.32175 14.6129 2.25396C14.3875 2.19448 14.0473 1.73328 13.7749 1.36281C13.3043 0.724157 12.7701 0 12 0C11.2299 0 10.6956 0.724157 10.226 1.36174C9.9537 1.73113 9.61351 2.19233 9.38919 2.25288C9.14292 2.3176 8.60033 2.08281 8.1652 1.89391C7.41805 1.56937 6.64483 1.23236 5.99894 1.60591C5.3457 1.98367 5.25076 2.82888 5.15895 3.64695C5.10676 4.11236 5.0421 4.69252 4.86782 4.8668C4.69355 5.04107 4.11442 5.10574 3.64798 5.15793C2.82991 5.24974 1.98469 5.34575 1.60694 5.99791C1.23339 6.64175 1.56937 7.41497 1.89494 8.16314C2.08379 8.59827 2.31965 9.13984 2.25391 9.38714C2.19443 9.61253 1.73323 9.95272 1.36277 10.2251C0.724157 10.6957 0 11.2299 0 12C0 12.7701 0.724157 13.3043 1.36174 13.7739C1.73113 14.0463 2.19233 14.3864 2.25288 14.6108C2.31862 14.857 2.08384 15.3996 1.89391 15.8348C1.56937 16.5829 1.23339 17.3561 1.60591 18.001C1.98367 18.6542 2.82888 18.7492 3.64695 18.841C4.11236 18.8932 4.69252 18.9579 4.8668 19.1321C5.04107 19.3064 5.10574 19.8866 5.15793 20.352C5.24974 21.17 5.34472 22.0153 5.99688 22.393C6.64175 22.7666 7.41497 22.4306 8.16314 22.105C8.59724 21.9162 9.13881 21.6803 9.38714 21.746C9.61253 21.8055 9.95272 22.2667 10.2251 22.6372C10.6957 23.2758 11.2299 24 12 24C12.7701 24 13.3044 23.2758 13.775 22.6382C14.0473 22.2688 14.3875 21.8076 14.6118 21.7471C14.857 21.6813 15.3997 21.9161 15.8358 22.106C16.584 22.4306 17.3551 22.7676 18.0021 22.394C18.6553 22.0163 18.7503 21.1711 18.8421 20.353C18.8932 19.8866 18.9589 19.3074 19.1322 19.1332C19.3054 18.9589 19.8856 18.8942 20.352 18.842C21.1701 18.7502 22.0153 18.6542 22.3931 18.002C22.7666 17.3582 22.4306 16.585 22.1051 15.8368C21.9162 15.4017 21.6803 14.8601 21.7461 14.6128C21.8056 14.3874 22.2668 14.0472 22.6372 13.7749C23.2758 13.3043 24 12.77 24 11.9999C24 11.2298 23.2758 10.6957 22.6383 10.2261ZM22.0195 12.9349C21.4664 13.3429 20.8935 13.7645 20.7391 14.3426C20.5784 14.9416 20.8685 15.6083 21.1492 16.2532C21.3287 16.6664 21.6 17.2904 21.4914 17.4793C21.3777 17.6765 20.6911 17.7538 20.2372 17.8049C19.5443 17.8831 18.8274 17.9635 18.3954 18.3955C17.9634 18.8275 17.8842 19.5433 17.8059 20.2362C17.7548 20.6901 17.6776 21.3767 17.4803 21.4905C17.2915 21.6011 16.6664 21.3277 16.2532 21.1482C15.6083 20.8675 14.9426 20.5775 14.3426 20.7381C13.7645 20.8926 13.343 21.4654 12.9349 22.0185C12.6584 22.391 12.2431 22.9566 12 22.9566C11.7568 22.9566 11.3405 22.3921 11.065 22.0185C10.657 21.4654 10.2354 20.8926 9.65734 20.7381C9.53838 20.7058 9.41732 20.6922 9.29421 20.6922C8.79544 20.6922 8.26429 20.9228 7.74777 21.1503C7.33353 21.3297 6.70744 21.6011 6.52064 21.4925C6.32343 21.3777 6.24619 20.6922 6.1961 20.2382C6.11784 19.5454 6.03748 18.8285 5.60548 18.3965C5.17348 17.9645 4.45661 17.8842 3.76376 17.8059C3.30985 17.7548 2.62325 17.6776 2.50948 17.4803C2.39992 17.2915 2.67226 16.6664 2.85173 16.2532C3.13136 15.6083 3.42146 14.9416 3.26181 14.3426C3.10739 13.7645 2.53453 13.343 1.98147 12.9349C1.60894 12.6584 1.04336 12.2421 1.04336 12C1.04336 11.7579 1.60894 11.3416 1.97936 11.0661C2.53242 10.6581 3.10529 10.2365 3.25971 9.65841C3.42039 9.05947 3.13033 8.39269 2.84962 7.74782C2.67016 7.3346 2.39884 6.71062 2.50738 6.52172C2.62218 6.3245 3.30774 6.24727 3.76165 6.19615C4.45451 6.11789 5.17138 6.03753 5.60338 5.60553C6.03538 5.17353 6.11574 4.45666 6.194 3.76381C6.24512 3.30989 6.32235 2.6233 6.51957 2.50953C6.70842 2.40099 7.33348 2.67231 7.7467 2.85178C8.39156 3.13249 9.05624 3.42049 9.65729 3.26186C10.2354 3.10744 10.6569 2.53457 11.065 1.98152C11.3415 1.60899 11.7578 1.04341 11.9999 1.04341C12.242 1.04341 12.6583 1.60899 12.9349 1.97941C13.3429 2.53247 13.7645 3.10534 14.3426 3.25976C14.9426 3.42254 15.6083 3.13141 16.2532 2.84967C16.6664 2.67021 17.2904 2.39786 17.4793 2.50743C17.6765 2.62223 17.7537 3.30779 17.8048 3.7617C17.8831 4.45456 17.9634 5.17143 18.3954 5.60343C18.8274 6.03543 19.5443 6.11579 20.2372 6.19405C20.6911 6.24516 21.3777 6.3224 21.4914 6.51961C21.601 6.70847 21.3287 7.33353 21.1492 7.74675C20.8696 8.39161 20.5795 9.0584 20.7391 9.65734C20.8935 10.2354 21.4664 10.657 22.0195 11.065C22.392 11.3415 22.9576 11.7568 22.9576 12C22.9576 12.2431 22.393 12.6595 22.0195 12.9349Z" fill="#00B96B"/>
<path d="M11.7413 10.9878C11.5284 10.153 10.6759 9.64802 9.838 9.85776C9.0032 10.0696 8.49504 10.9231 8.70791 11.76L9.22233 13.7823C9.40287 14.4898 10.0415 14.9625 10.7406 14.9625C10.8679 14.9625 10.9973 14.9468 11.1256 14.9124C11.5305 14.8091 11.8707 14.5545 12.0846 14.1955C12.2985 13.8365 12.359 13.415 12.2557 13.0101L11.7413 10.9878ZM11.1872 13.6633C11.1162 13.7833 11.0025 13.8678 10.8679 13.9023C10.5883 13.9743 10.3044 13.8042 10.2335 13.5256L9.72007 11.5033C9.64909 11.2247 9.81814 10.9399 10.0967 10.8689C10.1395 10.8574 10.1823 10.8522 10.2251 10.8522C10.4578 10.8522 10.6717 11.0098 10.7301 11.2456L11.2445 13.2689C11.279 13.4035 11.2581 13.5433 11.1872 13.6633Z" fill="#00B96B"/>
<path d="M19.97 11.5889L18.4527 11.9739L18.196 10.9618L18.7011 10.8334C18.9807 10.7635 19.1487 10.4797 19.0777 10.2C19.0078 9.9204 18.7198 9.75028 18.4444 9.82336L17.9383 9.95273L17.6816 8.94057L19.1988 8.5545C19.4774 8.48461 19.6464 8.20076 19.5755 7.92113C19.5056 7.64149 19.2155 7.47348 18.9421 7.54445L16.9198 8.05887C16.7852 8.09228 16.6704 8.17885 16.5995 8.29781C16.5285 8.41574 16.5077 8.55866 16.5421 8.69224L17.571 12.7368C17.6305 12.9736 17.8434 13.1302 18.076 13.1302C18.1188 13.1302 18.1616 13.1249 18.2044 13.1135L20.2266 12.5991C20.5053 12.5292 20.6743 12.2453 20.6033 11.9657C20.5334 11.6859 20.2454 11.5158 19.97 11.5889Z" fill="#00B96B"/>
<path d="M15.4018 8.44384L12.3685 9.21495C12.0898 9.28485 11.9208 9.56869 11.9918 9.84833C12.0513 10.0852 12.2641 10.2417 12.4968 10.2417C12.5396 10.2417 12.5834 10.2376 12.6262 10.2261L13.6373 9.96836L14.5368 13.5079C14.5962 13.7447 14.8091 13.9013 15.0418 13.9013C15.0846 13.9013 15.1284 13.896 15.1701 13.8846C15.4488 13.8147 15.6178 13.5308 15.5468 13.2512L14.6474 9.71171L15.6585 9.45399C15.9371 9.38409 16.1061 9.10025 16.0352 8.82062C15.9653 8.54088 15.6773 8.37184 15.4018 8.44384Z" fill="#00B96B"/>
</svg>
