<svg width="24" height="24" viewBox="0 0 24 24" fill="none" xmlns="http://www.w3.org/2000/svg">
<g clip-path="url(#clip0_0_2066)">
<path d="M6.69995 12C6.70369 13.1083 6.84249 14.212 7.11328 15.2867H11.4333V8.96667H7.05328C6.82283 9.96146 6.70432 10.9789 6.69995 12Z" fill="#CED4DA"/>
<path d="M12.5667 8.96667V15.2867H16.8867C17.1687 14.2134 17.3187 13.1097 17.3333 12C17.3311 10.9791 17.2149 9.96171 16.9866 8.96667H12.5667Z" fill="#CED4DA"/>
<path d="M11.9999 1.33337C9.89026 1.33337 7.82796 1.95896 6.07384 3.13103C4.31972 4.3031 2.95254 5.96901 2.14521 7.91808C1.33787 9.86716 1.12664 12.0119 1.53821 14.081C1.94979 16.1501 2.96569 18.0508 4.45745 19.5425C5.94921 21.0343 7.84983 22.0502 9.91896 22.4618C11.9881 22.8733 14.1328 22.6621 16.0819 21.8548C18.031 21.0474 19.6969 19.6802 20.8689 17.9261C22.041 16.172 22.6666 14.1097 22.6666 12C22.6666 9.17106 21.5428 6.45796 19.5424 4.45757C17.542 2.45718 14.8289 1.33337 11.9999 1.33337ZM20.1466 16.4734H17.7333C17.277 17.9019 16.6023 19.2512 15.7333 20.4734C15.092 20.7529 14.421 20.9586 13.7333 21.0867C14.9649 19.7484 15.9128 18.1745 16.5199 16.46H12.5733V21.2267H11.4466V16.4734H7.47992C8.0862 18.1902 9.03417 19.7664 10.2666 21.1067C9.59303 20.98 8.93565 20.7788 8.30659 20.5067C7.43447 19.2743 6.75971 17.9135 6.30659 16.4734H3.85326C3.64028 16.0849 3.45537 15.6816 3.29992 15.2667H5.96659C5.71672 14.1956 5.58703 13.0999 5.57992 12C5.58029 10.9805 5.68754 9.96386 5.89992 8.96671H3.17326C3.31345 8.55303 3.48277 8.1498 3.67992 7.76004H6.21992C6.69652 6.17273 7.43563 4.67648 8.40659 3.33337C9.0223 3.07825 9.66382 2.89049 10.3199 2.77337C8.9937 4.19674 7.99281 5.89144 7.38659 7.74004H11.4466V2.66671H12.5733V7.76004H16.6333C16.0281 5.9144 15.0296 4.2221 13.7066 2.80004C14.3616 2.9087 15.0031 3.08751 15.6199 3.33337C16.5852 4.66677 17.322 6.15149 17.7999 7.72671H20.3133C20.5104 8.11648 20.6797 8.5197 20.8199 8.93337H18.1133C18.3302 9.94118 18.4397 10.9691 18.4399 12C18.4365 13.1064 18.309 14.2088 18.0599 15.2867H20.7266C20.5616 15.6955 20.3678 16.0921 20.1466 16.4734Z" fill="#CED4DA"/>
</g>
<defs>
<clipPath id="clip0_0_2066">
<rect width="24" height="24" fill="white"/>
</clipPath>
</defs>
</svg>
