<svg width="21" height="25" viewBox="0 0 21 25" fill="none" xmlns="http://www.w3.org/2000/svg">
<path d="M21 19.8333V21H0V19.8333L2.33333 17.5V10.5C2.33333 6.88333 4.70167 3.69833 8.16667 2.67167V2.33333C8.16667 1.71449 8.4125 1.121 8.85008 0.683417C9.28767 0.245833 9.88116 0 10.5 0C11.1188 0 11.7123 0.245833 12.1499 0.683417C12.5875 1.121 12.8333 1.71449 12.8333 2.33333V2.67167C16.2983 3.69833 18.6667 6.88333 18.6667 10.5V17.5L21 19.8333ZM12.8333 22.1667C12.8333 22.7855 12.5875 23.379 12.1499 23.8166C11.7123 24.2542 11.1188 24.5 10.5 24.5C9.88116 24.5 9.28767 24.2542 8.85008 23.8166C8.4125 23.379 8.16667 22.7855 8.16667 22.1667" fill="#CED4DA"/>
</svg>
