<svg width="8" height="13" viewBox="0 0 8 13" fill="none" xmlns="http://www.w3.org/2000/svg">
<path d="M1.47499 0.257222L7.25469 6.01977C7.32329 6.08837 7.372 6.16269 7.40081 6.24273C7.42963 6.32276 7.4438 6.40851 7.44335 6.49998C7.44335 6.59145 7.42917 6.6772 7.40081 6.75724C7.37246 6.83727 7.32375 6.91159 7.25469 6.9802L1.47499 12.7599C1.31492 12.92 1.11484 13 0.874729 13C0.634623 13 0.428818 12.9142 0.257314 12.7427C0.0858088 12.5712 5.69187e-05 12.3712 5.69187e-05 12.1425C5.69187e-05 11.9138 0.0858088 11.7137 0.257314 11.5422L5.29954 6.49998L0.257314 1.45775C0.0972426 1.29768 0.0172071 1.10034 0.0172071 0.865721C0.0172071 0.631102 0.102959 0.42827 0.274464 0.257222C0.445968 0.0857175 0.646056 -3.43475e-05 0.874729 -3.43475e-05C1.1034 -3.43475e-05 1.30349 0.0857175 1.47499 0.257222Z" fill="white"/>
</svg>
