<svg width="112" height="40" viewBox="0 0 112 40" fill="none" xmlns="http://www.w3.org/2000/svg">
<g clip-path="url(#clip0_0_1166)">
<path d="M38.7285 22.7344V24H34.4395V22.7344H38.7285ZM34.9258 15.4688V24H33.3145V15.4688H34.9258ZM39.4141 20.8945V20.7715C39.4141 20.3066 39.4805 19.8789 39.6133 19.4883C39.7461 19.0938 39.9395 18.752 40.1934 18.4629C40.4473 18.1738 40.7578 17.9492 41.125 17.7891C41.4922 17.625 41.9102 17.543 42.3789 17.543C42.8555 17.543 43.2773 17.625 43.6445 17.7891C44.0156 17.9492 44.3281 18.1738 44.582 18.4629C44.8359 18.752 45.0293 19.0938 45.1621 19.4883C45.2949 19.8789 45.3613 20.3066 45.3613 20.7715V20.8945C45.3613 21.3555 45.2949 21.7832 45.1621 22.1777C45.0293 22.5684 44.8359 22.9102 44.582 23.2031C44.3281 23.4922 44.0176 23.7168 43.6504 23.877C43.2832 24.0371 42.8633 24.1172 42.3906 24.1172C41.9219 24.1172 41.502 24.0371 41.1309 23.877C40.7598 23.7168 40.4473 23.4922 40.1934 23.2031C39.9395 22.9102 39.7461 22.5684 39.6133 22.1777C39.4805 21.7832 39.4141 21.3555 39.4141 20.8945ZM40.9609 20.7715V20.8945C40.9609 21.1719 40.9883 21.4316 41.043 21.6738C41.0977 21.916 41.1816 22.1289 41.2949 22.3125C41.4082 22.4961 41.5547 22.6406 41.7344 22.7461C41.918 22.8477 42.1367 22.8984 42.3906 22.8984C42.6406 22.8984 42.8555 22.8477 43.0352 22.7461C43.2148 22.6406 43.3613 22.4961 43.4746 22.3125C43.5918 22.1289 43.6777 21.916 43.7324 21.6738C43.7871 21.4316 43.8145 21.1719 43.8145 20.8945V20.7715C43.8145 20.498 43.7871 20.2422 43.7324 20.0039C43.6777 19.7617 43.5918 19.5488 43.4746 19.3652C43.3613 19.1777 43.2129 19.0312 43.0293 18.9258C42.8496 18.8164 42.6328 18.7617 42.3789 18.7617C42.1289 18.7617 41.9141 18.8164 41.7344 18.9258C41.5547 19.0312 41.4082 19.1777 41.2949 19.3652C41.1816 19.5488 41.0977 19.7617 41.043 20.0039C40.9883 20.2422 40.9609 20.498 40.9609 20.7715ZM49.0879 22.8984C49.3066 22.8984 49.502 22.8555 49.6738 22.7695C49.8457 22.6836 49.9824 22.5625 50.084 22.4062C50.1895 22.25 50.2461 22.0684 50.2539 21.8613H51.7129C51.7051 22.291 51.584 22.6758 51.3496 23.0156C51.1152 23.3555 50.8027 23.625 50.4121 23.8242C50.0254 24.0195 49.5918 24.1172 49.1113 24.1172C48.623 24.1172 48.1973 24.0352 47.834 23.8711C47.4707 23.707 47.168 23.4785 46.9258 23.1855C46.6875 22.8926 46.5078 22.5527 46.3867 22.166C46.2695 21.7793 46.2109 21.3652 46.2109 20.9238V20.7363C46.2109 20.2949 46.2695 19.8809 46.3867 19.4941C46.5078 19.1074 46.6875 18.7676 46.9258 18.4746C47.168 18.1816 47.4707 17.9531 47.834 17.7891C48.1973 17.625 48.6211 17.543 49.1055 17.543C49.6172 17.543 50.0664 17.6426 50.4531 17.8418C50.8438 18.041 51.1484 18.3223 51.3672 18.6855C51.5898 19.0488 51.7051 19.4766 51.7129 19.9688H50.2539C50.2461 19.7422 50.1953 19.5391 50.1016 19.3594C50.0078 19.1797 49.875 19.0352 49.7031 18.9258C49.5312 18.8164 49.3223 18.7617 49.0762 18.7617C48.8145 18.7617 48.5957 18.8164 48.4199 18.9258C48.248 19.0352 48.1133 19.1855 48.0156 19.377C47.9219 19.5645 47.8555 19.7754 47.8164 20.0098C47.7812 20.2402 47.7637 20.4824 47.7637 20.7363V20.9238C47.7637 21.1816 47.7812 21.4277 47.8164 21.6621C47.8555 21.8965 47.9219 22.1074 48.0156 22.2949C48.1133 22.4785 48.248 22.625 48.4199 22.7344C48.5957 22.8438 48.8184 22.8984 49.0879 22.8984ZM56.2363 22.6523V19.7285C56.2363 19.5137 56.1992 19.3281 56.125 19.1719C56.0508 19.0156 55.9375 18.8945 55.7852 18.8086C55.6328 18.7227 55.4395 18.6797 55.2051 18.6797C54.998 18.6797 54.8164 18.7148 54.6602 18.7852C54.5078 18.8555 54.3906 18.9551 54.3086 19.084C54.2266 19.209 54.1855 19.3535 54.1855 19.5176H52.6328C52.6328 19.2559 52.6953 19.0078 52.8203 18.7734C52.9453 18.5352 53.123 18.3242 53.3535 18.1406C53.5879 17.9531 53.8672 17.8066 54.1914 17.7012C54.5195 17.5957 54.8867 17.543 55.293 17.543C55.7734 17.543 56.2012 17.625 56.5762 17.7891C56.9551 17.9492 57.252 18.1914 57.4668 18.5156C57.6855 18.8398 57.7949 19.248 57.7949 19.7402V22.5059C57.7949 22.8223 57.8145 23.0938 57.8535 23.3203C57.8965 23.543 57.959 23.7363 58.041 23.9004V24H56.4648C56.3906 23.8398 56.334 23.6367 56.2949 23.3906C56.2559 23.1406 56.2363 22.8945 56.2363 22.6523ZM56.4531 20.1387L56.4648 21.0586H55.4863C55.2441 21.0586 55.0312 21.084 54.8477 21.1348C54.6641 21.1816 54.5137 21.252 54.3965 21.3457C54.2793 21.4355 54.1914 21.5449 54.1328 21.6738C54.0742 21.7988 54.0449 21.9414 54.0449 22.1016C54.0449 22.2578 54.0801 22.3984 54.1504 22.5234C54.2246 22.6484 54.3301 22.748 54.4668 22.8223C54.6074 22.8926 54.7715 22.9277 54.959 22.9277C55.2324 22.9277 55.4707 22.873 55.6738 22.7637C55.877 22.6504 56.0352 22.5137 56.1484 22.3535C56.2617 22.1934 56.3223 22.041 56.3301 21.8965L56.7754 22.5645C56.7207 22.7246 56.6387 22.8945 56.5293 23.0742C56.4199 23.2539 56.2793 23.4219 56.1074 23.5781C55.9355 23.7344 55.7285 23.8633 55.4863 23.9648C55.2441 24.0664 54.9629 24.1172 54.6426 24.1172C54.2324 24.1172 53.8652 24.0352 53.541 23.8711C53.2168 23.707 52.9609 23.4824 52.7734 23.1973C52.5859 22.9121 52.4922 22.5879 52.4922 22.2246C52.4922 21.8887 52.5547 21.5918 52.6797 21.334C52.8047 21.0762 52.9902 20.8594 53.2363 20.6836C53.4824 20.5039 53.7871 20.3691 54.1504 20.2793C54.5176 20.1855 54.9375 20.1387 55.4102 20.1387H56.4531ZM62.1895 17.6602V18.7734H58.5566V17.6602H62.1895ZM59.5293 16.1016H61.082V22.1719C61.082 22.3594 61.1074 22.5039 61.1582 22.6055C61.209 22.707 61.2852 22.7754 61.3867 22.8105C61.4883 22.8457 61.6094 22.8633 61.75 22.8633C61.8516 22.8633 61.9453 22.8574 62.0312 22.8457C62.1172 22.834 62.1895 22.8223 62.248 22.8105L62.2539 23.9707C62.125 24.0137 61.9785 24.0488 61.8145 24.0762C61.6543 24.1035 61.4727 24.1172 61.2695 24.1172C60.9219 24.1172 60.6172 24.0586 60.3555 23.9414C60.0938 23.8203 59.8906 23.627 59.7461 23.3613C59.6016 23.0918 59.5293 22.7363 59.5293 22.2949V16.1016ZM64.8613 17.6602V24H63.3086V17.6602H64.8613ZM63.2031 16.002C63.2031 15.7715 63.2812 15.5801 63.4375 15.4277C63.5977 15.2754 63.8125 15.1992 64.082 15.1992C64.3516 15.1992 64.5645 15.2754 64.7207 15.4277C64.8809 15.5801 64.9609 15.7715 64.9609 16.002C64.9609 16.2285 64.8809 16.418 64.7207 16.5703C64.5645 16.7227 64.3516 16.7988 64.082 16.7988C63.8125 16.7988 63.5977 16.7227 63.4375 16.5703C63.2812 16.418 63.2031 16.2285 63.2031 16.002ZM66.0625 20.8945V20.7715C66.0625 20.3066 66.1289 19.8789 66.2617 19.4883C66.3945 19.0938 66.5879 18.752 66.8418 18.4629C67.0957 18.1738 67.4062 17.9492 67.7734 17.7891C68.1406 17.625 68.5586 17.543 69.0273 17.543C69.5039 17.543 69.9258 17.625 70.293 17.7891C70.6641 17.9492 70.9766 18.1738 71.2305 18.4629C71.4844 18.752 71.6777 19.0938 71.8105 19.4883C71.9434 19.8789 72.0098 20.3066 72.0098 20.7715V20.8945C72.0098 21.3555 71.9434 21.7832 71.8105 22.1777C71.6777 22.5684 71.4844 22.9102 71.2305 23.2031C70.9766 23.4922 70.666 23.7168 70.2988 23.877C69.9316 24.0371 69.5117 24.1172 69.0391 24.1172C68.5703 24.1172 68.1504 24.0371 67.7793 23.877C67.4082 23.7168 67.0957 23.4922 66.8418 23.2031C66.5879 22.9102 66.3945 22.5684 66.2617 22.1777C66.1289 21.7832 66.0625 21.3555 66.0625 20.8945ZM67.6094 20.7715V20.8945C67.6094 21.1719 67.6367 21.4316 67.6914 21.6738C67.7461 21.916 67.8301 22.1289 67.9434 22.3125C68.0566 22.4961 68.2031 22.6406 68.3828 22.7461C68.5664 22.8477 68.7852 22.8984 69.0391 22.8984C69.2891 22.8984 69.5039 22.8477 69.6836 22.7461C69.8633 22.6406 70.0098 22.4961 70.123 22.3125C70.2402 22.1289 70.3262 21.916 70.3809 21.6738C70.4355 21.4316 70.4629 21.1719 70.4629 20.8945V20.7715C70.4629 20.498 70.4355 20.2422 70.3809 20.0039C70.3262 19.7617 70.2402 19.5488 70.123 19.3652C70.0098 19.1777 69.8613 19.0312 69.6777 18.9258C69.498 18.8164 69.2812 18.7617 69.0273 18.7617C68.7773 18.7617 68.5625 18.8164 68.3828 18.9258C68.2031 19.0312 68.0566 19.1777 67.9434 19.3652C67.8301 19.5488 67.7461 19.7617 67.6914 20.0039C67.6367 20.2422 67.6094 20.498 67.6094 20.7715ZM74.6523 19.0137V24H73.1055V17.6602H74.5586L74.6523 19.0137ZM74.4062 20.6016H73.9492C73.9531 20.1406 74.0156 19.7227 74.1367 19.3477C74.2578 18.9727 74.4277 18.6504 74.6465 18.3809C74.8691 18.1113 75.1328 17.9043 75.4375 17.7598C75.7422 17.6152 76.082 17.543 76.457 17.543C76.7617 17.543 77.0371 17.5859 77.2832 17.6719C77.5293 17.7578 77.7402 17.8945 77.916 18.082C78.0957 18.2695 78.2324 18.5156 78.3262 18.8203C78.4238 19.1211 78.4727 19.4922 78.4727 19.9336V24H76.9141V19.9219C76.9141 19.6328 76.8711 19.4043 76.7852 19.2363C76.7031 19.0684 76.582 18.9492 76.4219 18.8789C76.2656 18.8086 76.0723 18.7734 75.8418 18.7734C75.6035 18.7734 75.3945 18.8223 75.2148 18.9199C75.0391 19.0137 74.8906 19.1445 74.7695 19.3125C74.6523 19.4805 74.5625 19.6738 74.5 19.8926C74.4375 20.1113 74.4062 20.3477 74.4062 20.6016Z" fill="#3ACCE6"/>
<line y1="39.75" x2="112" y2="39.75" stroke="#3ACCE6" stroke-width="0.5"/>
</g>
<defs>
<clipPath id="clip0_0_1166">
<rect width="112" height="40" fill="white"/>
</clipPath>
</defs>
</svg>
