<svg width="24" height="19" viewBox="0 0 24 19" fill="none" xmlns="http://www.w3.org/2000/svg">
<path d="M21.3749 4.74998L11.8749 10.6875L2.37499 4.74998V2.37499L11.8749 8.31246L21.3749 2.37499M21.3749 0H2.37499C1.05687 0 0 1.05687 0 2.37499V16.6249C0 17.2548 0.250221 17.8589 0.695618 18.3043C1.14102 18.7497 1.7451 18.9999 2.37499 18.9999H21.3749C22.0048 18.9999 22.6089 18.7497 23.0543 18.3043C23.4997 17.8589 23.7499 17.2548 23.7499 16.6249V2.37499C23.7499 1.7451 23.4997 1.14102 23.0543 0.695618C22.6089 0.250221 22.0048 0 21.3749 0Z" fill="#CED4DA"/>
</svg>
