<svg width="16" height="16" viewBox="0 0 16 16" fill="none" xmlns="http://www.w3.org/2000/svg">
<path d="M10.3333 9.33332H9.80665L9.61998 9.15332C10.0366 8.66929 10.3411 8.09917 10.5117 7.48373C10.6823 6.86829 10.7147 6.22275 10.6067 5.59332C10.2933 3.73998 8.74665 2.25998 6.87998 2.03332C6.22373 1.95029 5.55718 2.0185 4.93133 2.23271C4.30549 2.44692 3.73695 2.80146 3.2692 3.2692C2.80146 3.73695 2.44692 4.30549 2.23271 4.93133C2.0185 5.55718 1.95029 6.22373 2.03332 6.87998C2.25998 8.74665 3.73998 10.2933 5.59332 10.6067C6.22275 10.7147 6.86829 10.6823 7.48373 10.5117C8.09917 10.3411 8.66929 10.0366 9.15332 9.61998L9.33332 9.80665V10.3333L12.1667 13.1667C12.44 13.44 12.8867 13.44 13.16 13.1667C13.4333 12.8933 13.4333 12.4467 13.16 12.1733L10.3333 9.33332ZM6.33332 9.33332C4.67332 9.33332 3.33332 7.99332 3.33332 6.33332C3.33332 4.67332 4.67332 3.33332 6.33332 3.33332C7.99332 3.33332 9.33332 4.67332 9.33332 6.33332C9.33332 7.99332 7.99332 9.33332 6.33332 9.33332Z" fill="#CED4DA"/>
</svg>
