<svg width="20" height="20" viewBox="0 0 20 20" fill="none" xmlns="http://www.w3.org/2000/svg">
<path d="M6 20C5.45 20 4.979 19.804 4.587 19.412C4.195 19.02 3.99933 18.5493 4 18C4 17.45 4.196 16.979 4.588 16.587C4.98 16.195 5.45067 15.9993 6 16C6.55 16 7.021 16.196 7.413 16.588C7.805 16.98 8.00067 17.4507 8 18C8 18.55 7.804 19.021 7.412 19.413C7.02 19.805 6.54933 20.0007 6 20ZM16 20C15.45 20 14.979 19.804 14.587 19.412C14.195 19.02 13.9993 18.5493 14 18C14 17.45 14.196 16.979 14.588 16.587C14.98 16.195 15.4507 15.9993 16 16C16.55 16 17.021 16.196 17.413 16.588C17.805 16.98 18.0007 17.4507 18 18C18 18.55 17.804 19.021 17.412 19.413C17.02 19.805 16.5493 20.0007 16 20ZM6 15C5.25 15 4.68333 14.6707 4.3 14.012C3.91667 13.3533 3.9 12.6993 4.25 12.05L5.6 9.6L2 2H0.975C0.691667 2 0.458333 1.904 0.275 1.712C0.0916666 1.52 0 1.28267 0 1C0 0.71667 0.096 0.479003 0.288 0.287003C0.48 0.0950034 0.717333 -0.000663206 1 3.46021e-06H2.625C2.80833 3.46021e-06 2.98333 0.0500036 3.15 0.150004C3.31667 0.250004 3.44167 0.39167 3.525 0.575004L4.2 2H18.95C19.4 2 19.7083 2.16667 19.875 2.5C20.0417 2.83334 20.0333 3.18334 19.85 3.55L16.3 9.95C16.1167 10.2833 15.875 10.5417 15.575 10.725C15.275 10.9083 14.9333 11 14.55 11H7.1L6 13H17.025C17.3083 13 17.5417 13.096 17.725 13.288C17.9083 13.48 18 13.7173 18 14C18 14.2833 17.904 14.521 17.712 14.713C17.52 14.905 17.2827 15.0007 17 15H6Z" fill="#CED4DA"/>
</svg>
