<svg width="8" height="13" viewBox="0 0 8 13" fill="none" xmlns="http://www.w3.org/2000/svg">
<path d="M5.96836 12.7428L0.188665 6.98023C0.120064 6.91163 0.0713564 6.83731 0.0425437 6.75727C0.0137309 6.67724 -0.000446626 6.59149 1.07191e-05 6.50002C1.07191e-05 6.40855 0.0141883 6.3228 0.0425437 6.24276C0.0708991 6.16273 0.119606 6.08841 0.188665 6.0198L5.96836 0.240106C6.12843 0.0800353 6.32852 0 6.56863 0C6.80874 0 7.01454 0.0857522 7.18604 0.257257C7.35755 0.428761 7.4433 0.628849 7.4433 0.857522C7.4433 1.08619 7.35755 1.28628 7.18604 1.45779L2.14382 6.50002L7.18604 11.5422C7.34612 11.7023 7.42615 11.8997 7.42615 12.1343C7.42615 12.3689 7.3404 12.5717 7.16889 12.7428C6.99739 12.9143 6.7973 13 6.56863 13C6.33996 13 6.13987 12.9143 5.96836 12.7428Z" fill="white"/>
</svg>
